<?xml version="1.0" encoding="UTF-8" standalone="no"?>
<!DOCTYPE svg PUBLIC "-//W3C//DTD SVG 1.1//EN"
 "http://www.w3.org/Graphics/SVG/1.1/DTD/svg11.dtd">
<!-- Generated by graphviz version 2.40.1 (20161225.0304)
 -->
<!-- Title: G Pages: 1 -->
<svg width="768pt" height="159pt"
 viewBox="0.00 0.00 767.92 159.43" xmlns="http://www.w3.org/2000/svg" xmlns:xlink="http://www.w3.org/1999/xlink">
<g id="graph0" class="graph" transform="scale(1 1) rotate(0) translate(4 155.4264)">
<title>G</title><style>.edge>path:hover{stroke-width:8}</style>
<polygon fill="#ffffff" stroke="transparent" points="-4,4 -4,-155.4264 763.9153,-155.4264 763.9153,4 -4,4"/>
<!-- paroxython_flatten_ast -->
<g id="node1" class="node">
<title>paroxython_flatten_ast</title><style>.edge>path:hover{stroke-width:8}</style>
<ellipse fill="#b34c4c" stroke="#000000" cx="48.7904" cy="-21.2132" rx="48.5816" ry="21.4286"/>
<text text-anchor="middle" x="48.7904" y="-24.2132" font-family="Helvetica,sans-Serif" font-size="10.00" fill="#ffffff">paroxython.</text>
<text text-anchor="middle" x="48.7904" y="-13.2132" font-family="Helvetica,sans-Serif" font-size="10.00" fill="#ffffff">flatten_ast</text>
</g>
<!-- paroxython_cleanup_source -->
<g id="node2" class="node">
<title>paroxython_cleanup_source</title><style>.edge>path:hover{stroke-width:8}</style>
<ellipse fill="#b34c4c" stroke="#000000" cx="176.7904" cy="-21.2132" rx="61.5366" ry="21.4286"/>
<text text-anchor="middle" x="176.7904" y="-24.2132" font-family="Helvetica,sans-Serif" font-size="10.00" fill="#ffffff">paroxython.</text>
<text text-anchor="middle" x="176.7904" y="-13.2132" font-family="Helvetica,sans-Serif" font-size="10.00" fill="#ffffff">cleanup_source</text>
</g>
<!-- paroxython_make_db -->
<g id="node3" class="node">
<title>paroxython_make_db</title><style>.edge>path:hover{stroke-width:8}</style>
<ellipse fill="#b34c4c" stroke="#000000" cx="304.7904" cy="-21.2132" rx="48.5816" ry="21.4286"/>
<text text-anchor="middle" x="304.7904" y="-24.2132" font-family="Helvetica,sans-Serif" font-size="10.00" fill="#ffffff">paroxython.</text>
<text text-anchor="middle" x="304.7904" y="-13.2132" font-family="Helvetica,sans-Serif" font-size="10.00" fill="#ffffff">make_db</text>
</g>
<!-- paroxython_filter_programs -->
<g id="node4" class="node">
<title>paroxython_filter_programs</title><style>.edge>path:hover{stroke-width:8}</style>
<ellipse fill="#b34c4c" stroke="#000000" cx="426.7904" cy="-21.2132" rx="55.3091" ry="21.4286"/>
<text text-anchor="middle" x="426.7904" y="-24.2132" font-family="Helvetica,sans-Serif" font-size="10.00" fill="#ffffff">paroxython.</text>
<text text-anchor="middle" x="426.7904" y="-13.2132" font-family="Helvetica,sans-Serif" font-size="10.00" fill="#ffffff">filter_programs</text>
</g>
<!-- paroxython_scanner -->
<g id="node5" class="node">
<title>paroxython_scanner</title><style>.edge>path:hover{stroke-width:8}</style>
<ellipse fill="#b34c4c" stroke="#000000" cx="548.7904" cy="-21.2132" rx="48.5816" ry="21.4286"/>
<text text-anchor="middle" x="548.7904" y="-24.2132" font-family="Helvetica,sans-Serif" font-size="10.00" fill="#ffffff">paroxython.</text>
<text text-anchor="middle" x="548.7904" y="-13.2132" font-family="Helvetica,sans-Serif" font-size="10.00" fill="#ffffff">scanner</text>
</g>
<!-- paroxython_generate_programs -->
<g id="node6" class="node">
<title>paroxython_generate_programs</title><style>.edge>path:hover{stroke-width:8}</style>
<ellipse fill="#b34c4c" stroke="#000000" cx="687.7904" cy="-21.2132" rx="72.25" ry="21.4286"/>
<text text-anchor="middle" x="687.7904" y="-24.2132" font-family="Helvetica,sans-Serif" font-size="10.00" fill="#ffffff">paroxython.</text>
<text text-anchor="middle" x="687.7904" y="-13.2132" font-family="Helvetica,sans-Serif" font-size="10.00" fill="#ffffff">generate_programs</text>
</g>
<!-- regex -->
<g id="node7" class="node">
<title>regex</title><style>.edge>path:hover{stroke-width:8}</style>
<ellipse fill="#06f9f9" stroke="#000000" cx="426.7904" cy="-133.4264" rx="27" ry="18"/>
<text text-anchor="middle" x="426.7904" y="-130.9264" font-family="Helvetica,sans-Serif" font-size="10.00" fill="#000000">regex</text>
</g>
<!-- regex&#45;&gt;paroxython_flatten_ast -->
<g id="edge2" class="edge">
<title>regex&#45;&gt;paroxython_flatten_ast</title><style>.edge>path:hover{stroke-width:8}</style>
<path fill="none" stroke="#000000" d="M430.2721,-115.5253C431.5824,-104.5261 431.737,-90.3947 426.7904,-78.9264"/>
<path fill="none" stroke="#000000" d="M426.7904,-78.9264C412.5733,-45.9653 140.7023,-50.7759 105.7904,-42.4264 101.9153,-41.4996 97.9442,-40.3852 93.9895,-39.1585"/>
<polygon fill="#06f9f9" stroke="#000000" points="94.8508,-35.7565 84.2572,-35.9212 92.6413,-42.3987 94.8508,-35.7565"/>
</g>
<!-- regex&#45;&gt;paroxython_cleanup_source -->
<g id="edge1" class="edge">
<title>regex&#45;&gt;paroxython_cleanup_source</title><style>.edge>path:hover{stroke-width:8}</style>
<path fill="none" stroke="#000000" d="M426.7904,-78.9264C410.6256,-41.4499 286.3642,-52.4115 246.7904,-42.4264 241.9134,-41.1959 236.8698,-39.8383 231.828,-38.4224"/>
<polygon fill="#06f9f9" stroke="#000000" points="232.7564,-35.0476 222.1785,-35.6459 230.8208,-41.7747 232.7564,-35.0476"/>
</g>
<!-- regex&#45;&gt;paroxython_make_db -->
<g id="edge3" class="edge">
<title>regex&#45;&gt;paroxython_make_db</title><style>.edge>path:hover{stroke-width:8}</style>
<path fill="none" stroke="#000000" d="M426.7904,-78.9264C423.3907,-71.0447 383.9103,-53.2766 350.7685,-39.5224"/>
<polygon fill="#06f9f9" stroke="#000000" points="351.7598,-36.1458 341.18,-35.58 349.0978,-42.6199 351.7598,-36.1458"/>
</g>
<!-- regex&#45;&gt;paroxython_filter_programs -->
<g id="edge4" class="edge">
<title>regex&#45;&gt;paroxython_filter_programs</title><style>.edge>path:hover{stroke-width:8}</style>
<path fill="none" stroke="#000000" d="M426.7904,-78.9264C423.3202,-70.8812 422.2208,-61.5983 422.2773,-52.8619"/>
<polygon fill="#06f9f9" stroke="#000000" points="425.7873,-52.7725 422.838,-42.5965 418.7977,-52.3907 425.7873,-52.7725"/>
</g>
<!-- regex&#45;&gt;paroxython_scanner -->
<g id="edge6" class="edge">
<title>regex&#45;&gt;paroxython_scanner</title><style>.edge>path:hover{stroke-width:8}</style>
<path fill="none" stroke="#000000" d="M426.7904,-78.9264C423.3083,-70.8536 465.8437,-52.4092 501.635,-38.5293"/>
<polygon fill="#06f9f9" stroke="#000000" points="502.9458,-41.7753 511.031,-34.9283 500.4407,-35.2389 502.9458,-41.7753"/>
</g>
<!-- regex&#45;&gt;paroxython_generate_programs -->
<g id="edge5" class="edge">
<title>regex&#45;&gt;paroxython_generate_programs</title><style>.edge>path:hover{stroke-width:8}</style>
<path fill="none" stroke="#000000" d="M426.7904,-78.9264C410.6256,-41.4499 567.0335,-51.6557 606.7904,-42.4264 612.5053,-41.0997 618.4316,-39.6641 624.3604,-38.1869"/>
<polygon fill="#06f9f9" stroke="#000000" points="625.4665,-41.5174 634.3038,-35.6734 623.751,-34.7309 625.4665,-41.5174"/>
</g>
</g>
</svg>
